<?xml version="1.0" encoding="UTF-8"?>
<svg version="1.1" xmlns="http://www.w3.org/2000/svg" width="512" height="512">
<path d="M0 0 C1.01457771 -0.00750224 2.02915542 -0.01500447 3.07447791 -0.02273405 C6.48453979 -0.04411787 9.89425829 -0.04395034 13.30438232 -0.04379272 C15.74516843 -0.05440288 18.18594949 -0.06623236 20.62672424 -0.07919312 C27.26527132 -0.11002115 33.90367856 -0.1211268 40.54227924 -0.12683535 C44.68857417 -0.13058692 48.83484836 -0.13939522 52.98113251 -0.14933395 C64.46426543 -0.17627409 75.9473783 -0.1987828 87.43054581 -0.20121193 C88.16532803 -0.2013675 88.90011025 -0.20152308 89.6571586 -0.20168336 C91.14670324 -0.20197442 92.63624789 -0.20225979 94.12579253 -0.20253952 C94.86519103 -0.20268237 95.60458953 -0.20282523 96.36639404 -0.20297241 C97.10669663 -0.20311208 97.84699922 -0.20325175 98.60973522 -0.20339565 C110.60287643 -0.20653031 122.59565633 -0.24311269 134.58867827 -0.29460867 C146.90600001 -0.34707486 159.22314341 -0.37332468 171.54057956 -0.37276304 C178.45470858 -0.37301556 185.36842246 -0.38422889 192.28244781 -0.42393875 C198.78654674 -0.46110434 205.2899539 -0.4621102 211.79416466 -0.43876648 C214.18063442 -0.43590235 216.56715313 -0.44499238 218.95352364 -0.46694565 C222.21390347 -0.49507777 225.47135461 -0.47996428 228.73168945 -0.45410156 C229.67450437 -0.47244509 230.61731928 -0.49078862 231.58870435 -0.50968802 C237.87115973 -0.39708492 240.99248212 1.21787809 245.4470098 5.64637721 C246.2750469 6.51831487 246.2750469 6.51831487 247.11981201 7.40786743 C248.0930542 8.28829712 249.06629639 9.16872681 250.06903076 10.07583618 C250.97266357 10.90728149 251.87629639 11.73872681 252.80731201 12.59536743 C253.31077148 13.05822144 253.81423096 13.52107544 254.33294678 13.99795532 C255.92969531 15.46670798 257.5249689 16.93704615 259.11981201 18.40786743 C259.64768311 18.89448853 260.1755542 19.38110962 260.71942139 19.88247681 C263.42847184 22.38034671 266.13608728 24.8797618 268.84246826 27.38052368 C270.99461496 29.36913534 273.14824673 31.35611462 275.30340576 33.34146118 C281.1156106 38.69738744 286.90888853 44.07264207 292.68231201 49.47036743 C298.14995722 54.58148763 303.6475336 59.65751935 309.17059326 64.70864868 C317.1682423 72.02835131 325.12178468 79.39590143 333.05731201 86.78286743 C333.67195313 87.35368042 334.28659424 87.92449341 334.91986084 88.51260376 C335.80580933 89.33861084 335.80580933 89.33861084 336.70965576 90.18130493 C337.22391113 90.66003052 337.7381665 91.1387561 338.26800537 91.63198853 C338.87910156 92.21802856 339.49019775 92.8040686 340.11981201 93.40786743 C340.60424353 93.80616843 341.08867505 94.20446943 341.58778632 94.61484015 C344.76866207 97.40955579 346.00594206 98.83633486 346.85809898 103.11345482 C346.88308902 104.52293586 346.8754623 105.93323979 346.84133911 107.3425293 C346.84646566 108.12353079 346.85159221 108.90453229 346.85687411 109.7092005 C346.86673017 112.31712532 346.83380699 114.92271595 346.80096436 117.53042603 C346.79927133 119.40320786 346.80022304 121.27599367 346.80361938 123.14877319 C346.80534035 128.22711788 346.77007375 133.30461163 346.72817564 138.38275862 C346.69065861 143.69183503 346.6871425 149.00093111 346.68002319 154.31011963 C346.66137725 164.3611594 346.61214343 174.41180744 346.55192626 184.46267474 C346.48485347 195.90631343 346.45187014 207.34997087 346.42175364 218.7937572 C346.35904433 242.33201109 346.25351397 265.86991731 346.11981201 289.40786743 C346.87109375 289.47244141 347.62237549 289.53701538 348.39642334 289.60354614 C349.8779187 289.73388245 349.8779187 289.73388245 351.38934326 289.86685181 C352.3675 289.95205078 353.34565674 290.03724976 354.35345459 290.12503052 C376.7900406 292.41898382 396.13351807 305.38626364 412.11981201 320.40786743 C412.72309326 320.93509399 413.32637451 321.46232056 413.94793701 322.00552368 C433.06240858 339.46757598 441.88878092 367.71094438 443.30731201 392.71255493 C443.90781241 423.413138 431.66044792 451.1375784 410.80731201 473.15786743 C388.16220889 494.79919825 359.64191876 503.16586844 328.88934326 502.72427368 C306.0143196 501.96187922 283.27351018 492.45079858 266.11981201 477.40786743 C265.38633545 476.81747681 264.65285889 476.22708618 263.89715576 475.61880493 C259.65581965 472.10305895 256.83628038 468.91886568 254.06577176 464.12466043 C251.37972122 459.85927614 248.63091868 456.24870739 243.71825767 454.60371089 C236.36647971 453.30355684 228.89943595 453.6474136 221.46624756 453.80606079 C218.95222288 453.80833483 216.43818599 453.80436675 213.92417908 453.79464722 C208.52496605 453.78721032 203.12868873 453.82202035 197.73001671 453.89527702 C189.91871516 454.00075296 182.10883027 454.02342579 174.29689584 454.0255285 C161.61229007 454.03070138 148.92871935 454.09451568 136.24456787 454.1991272 C123.94416407 454.30037965 111.64389724 454.3864194 99.34320068 454.44326782 C98.20561795 454.44854505 98.20561795 454.44854505 97.04505374 454.45392888 C88.76391308 454.4916913 80.48277044 454.52266055 72.20157337 454.54487705 C71.47368807 454.54683971 70.74580277 454.54880238 69.99586034 454.55082451 C67.08606256 454.558561 64.17626498 454.56619632 61.26646469 454.57293207 C52.75461273 454.59276527 44.24350304 454.63379621 35.73198954 454.71340544 C29.76669045 454.76855603 23.80151928 454.8002612 17.83600044 454.82369995 C15.38896904 454.83783183 12.94197039 454.86069203 10.49510956 454.89285469 C7.15843414 454.93574968 3.82298411 454.94802479 0.48606873 454.95289612 C-0.48503367 454.97311905 -1.45613607 454.99334199 -2.45666581 455.01417774 C-6.86284533 454.99057336 -9.92981526 454.8524689 -13.46557903 452.06130314 C-17.18798805 447.97071407 -17.02501197 444.4617845 -17.01161575 439.21228218 C-17.01366839 438.47081096 -17.01572102 437.72933973 -17.01783586 436.96539968 C-17.02352597 434.46110859 -17.02204614 431.95687214 -17.02062988 429.45257568 C-17.02321236 427.64688677 -17.02622519 425.84119844 -17.02963328 424.0355109 C-17.03772021 419.05804983 -17.03949379 414.08060316 -17.04023075 409.1031363 C-17.04207834 403.74107617 -17.04962413 398.37902357 -17.05636597 393.01696777 C-17.06996128 381.28577989 -17.07597572 369.55459542 -17.08037663 357.82340097 C-17.08313672 350.50300302 -17.08737361 343.18260638 -17.0918808 335.86220932 C-17.10407445 315.60687658 -17.11437395 295.3515449 -17.11775589 275.09620857 C-17.11797546 273.79925802 -17.11819502 272.50230746 -17.11842124 271.16605537 C-17.11863952 269.86594975 -17.1188578 268.56584413 -17.11908269 267.22634137 C-17.11952616 264.59170031 -17.11997272 261.95705926 -17.12042236 259.32241821 C-17.12064379 258.015537 -17.12086522 256.70865579 -17.12109336 255.36217211 C-17.12504335 234.17491759 -17.14250307 212.98769742 -17.16578189 191.80045618 C-17.18947144 170.06454716 -17.20195663 148.3286554 -17.20312381 126.59273326 C-17.20404186 114.3820152 -17.20982686 102.1713419 -17.22794342 89.96063614 C-17.24331203 79.56522968 -17.24848404 69.16988182 -17.24020532 58.77446617 C-17.23628745 53.46758344 -17.23728364 48.16081884 -17.25126266 42.8539505 C-17.26393351 37.99946307 -17.26286445 33.14518335 -17.25067195 28.29069649 C-17.24870308 26.53094914 -17.25184781 24.77118742 -17.26051632 23.01146032 C-17.27152789 20.62576352 -17.26417892 18.24081033 -17.25212479 15.85513496 C-17.25971998 15.16642427 -17.26731517 14.47771358 -17.27514052 13.76813287 C-17.21771613 8.5303934 -15.71195831 5.49284401 -12.31019974 1.62085915 C-8.35228355 -0.35481835 -4.36162165 -0.01816477 0 0 Z M5.11981201 21.40786743 C5.11981201 157.36786743 5.11981201 293.32786743 5.11981201 433.40786743 C81.01981201 433.40786743 156.91981201 433.40786743 235.11981201 433.40786743 C233.77640374 427.28233194 233.77640374 427.28233194 232.26824951 421.19692993 C225.60050797 393.91980545 230.26849565 364.43759768 244.44012451 340.33755493 C257.81982386 318.81842505 277.15637178 303.25598791 301.11981201 295.09536743 C301.7942334 294.86494751 302.46865479 294.63452759 303.16351318 294.39712524 C310.42333049 292.07739007 317.52312035 290.92720576 325.11981201 289.40786743 C325.11981201 231.98786743 325.11981201 174.56786743 325.11981201 115.40786743 C300.36981201 115.07786743 275.61981201 114.74786743 250.11981201 114.40786743 C239.60857099 111.25449512 233.54096616 108.69088974 228.12762451 99.43521118 C216.5346134 76.1143865 224.48658411 47.44868633 224.11981201 21.40786743 C151.84981201 21.40786743 79.57981201 21.40786743 5.11981201 21.40786743 Z M245.11981201 36.40786743 C245.01835039 43.57937531 244.94832045 50.75069792 244.90008545 57.92276001 C244.87997637 60.3622835 244.85268518 62.80175883 244.8180542 65.24111938 C244.76950712 68.74864591 244.74683569 72.25553486 244.72918701 75.76333618 C244.70854187 76.8530925 244.68789673 77.94284882 244.66662598 79.06562805 C244.63392585 85.11895551 244.63392585 85.11895551 247.01922607 90.57315063 C250.32102339 93.45704264 252.17869905 93.53105378 256.48748779 93.52139282 C258.16900436 93.52127953 258.16900436 93.52127953 259.88449097 93.52116394 C261.09910004 93.51600266 262.31370911 93.51084137 263.56512451 93.50552368 C265.42534744 93.50340126 265.42534744 93.50340126 267.32315063 93.50123596 C270.62099334 93.4965784 273.91878748 93.48759183 277.21661377 93.47653198 C280.58147588 93.46630475 283.94634509 93.46173553 287.31121826 93.45669556 C293.91410194 93.44565012 300.516953 93.4288999 307.11981201 93.40786743 C306.16804275 92.28498432 305.21449129 91.16361166 304.26019287 90.0428772 C303.46396767 89.10593773 303.46396767 89.10593773 302.6516571 88.15007019 C300.79539862 86.0389046 298.80452312 84.18764339 296.68231201 82.34536743 C292.32318161 78.49676581 288.04994345 74.57111234 283.80731201 70.59536743 C279.05003506 66.14300581 274.28509344 61.69971883 269.49481201 57.28286743 C268.97378906 56.80236938 268.45276611 56.32187134 267.91595459 55.82681274 C265.72554234 53.80760591 263.53422821 51.78938081 261.34246826 49.77163696 C260.13993019 48.66446145 258.93761575 47.557043 257.73553467 46.44937134 C256.60552395 45.40811322 255.47501878 44.36739135 254.34393311 43.32730103 C252.30541893 41.44861976 250.28433505 39.58161261 248.37762451 37.56802368 C247.15998269 36.18186889 247.15998269 36.18186889 245.11981201 36.40786743 Z M274.11981201 336.40786743 C273.41985107 337.09493774 272.71989014 337.78200806 271.99871826 338.48989868 C257.64818374 353.56775075 250.28795619 374.75311844 249.74481201 395.34536743 C250.40594391 419.5868703 259.54446513 440.39526014 276.46356201 457.82192993 C293.94544115 474.33890016 316.38406573 482.22842483 340.17449951 481.69302368 C360.05872602 480.25584691 378.19776279 472.53149378 393.11981201 459.40786743 C393.87004639 458.75302368 394.62028076 458.09817993 395.39324951 457.42349243 C410.80835631 443.03605942 420.45999496 422.40955527 421.40106201 401.35317993 C421.99515971 378.47110338 416.03842465 357.46560244 400.55731201 340.03286743 C399.08572713 338.48396199 397.60721885 336.94158547 396.11981201 335.40786743 C395.58098389 334.79556274 395.04215576 334.18325806 394.48699951 333.55239868 C381.52204858 319.31701286 360.19410846 311.0188714 341.32293701 310.12661743 C315.23894824 309.40407619 292.80571953 318.03391162 274.11981201 336.40786743 Z " fill="#000000" transform="translate(42.88018798828125,4.592132568359375)"/>
<path d="M0 0 C2.7342966 1.36149893 3.89961363 2.63706533 6 5 C6.90605243 8.31741726 7.12811359 11.45470418 7.14044189 14.88204956 C7.14900711 16.31600571 7.14900711 16.31600571 7.15774536 17.77893066 C7.15886322 18.81594116 7.15998108 19.85295166 7.16113281 20.92138672 C7.16609772 22.02277985 7.17106262 23.12417297 7.17617798 24.25894165 C7.19077243 27.89919664 7.19759651 31.53940807 7.203125 35.1796875 C7.20887794 37.71168011 7.21463566 40.2436727 7.22039795 42.77566528 C7.22955835 47.40542935 7.2358623 52.03518037 7.2388947 56.66495121 C7.24337525 63.46693942 7.26092928 70.26872667 7.2898953 77.0706538 C7.31415866 82.97436952 7.32184098 88.87803544 7.32357025 94.78180313 C7.32659582 97.2880068 7.33462109 99.79420963 7.34775543 102.30038071 C7.36482377 105.80701662 7.36293362 109.31316353 7.35644531 112.81982422 C7.3656601 113.85278625 7.37487488 114.88574829 7.3843689 115.95001221 C7.34628068 122.52660064 6.79745285 127.78810969 2.3125 132.9375 C-1.1391517 134.52339402 -4.32894795 134.77507817 -8 134 C-11.0190434 132.24700706 -13.41511201 130.16977599 -15 127 C-15.10100022 125.4171942 -15.13942752 123.83020774 -15.14717102 122.24420166 C-15.15432632 121.2404248 -15.16148163 120.23664795 -15.16885376 119.20245361 C-15.17154266 118.09698181 -15.17423157 116.99151001 -15.17700195 115.85253906 C-15.18357315 114.6914563 -15.19014435 113.53037354 -15.19691467 112.33410645 C-15.21668334 108.47794537 -15.22831819 104.6218233 -15.23828125 100.765625 C-15.24235678 99.45104057 -15.2464323 98.13645615 -15.25063133 96.78203583 C-15.26968551 90.54245837 -15.28391501 84.30289275 -15.2922433 78.06329179 C-15.3020115 70.86388851 -15.32831874 63.66479304 -15.36874419 56.46549821 C-15.39892474 50.89937781 -15.41371407 45.33334554 -15.41702431 39.76714492 C-15.41937302 36.44352547 -15.43028581 33.12030965 -15.45348549 29.79676056 C-15.47777841 26.08593633 -15.47692932 22.37591812 -15.4699707 18.66503906 C-15.48278076 17.56766418 -15.49559082 16.47028931 -15.50878906 15.33966064 C-15.46724597 9.26683784 -15.12437356 5.59240057 -11 1 C-7.50790866 -0.74604567 -3.81000569 -0.5689438 0 0 Z " fill="#000000" transform="translate(93,165)"/>
<path d="M0 0 C2.87472735 1.24988145 4.44101438 2.25468584 6.3125 4.75 C7.67689409 9.21528976 7.6100382 12.69673657 5.625 16.9375 C2.97494874 20.42825717 -0.46455738 22.95671874 -3.9140625 25.6171875 C-7.53544875 28.41344777 -11.08027678 31.29514301 -14.625 34.1875 C-16.00507411 35.31006087 -17.38528451 36.4324542 -18.765625 37.5546875 C-20.17712107 38.70307862 -21.5885792 39.85151638 -23 41 C-24.4114208 42.14848362 -25.82287893 43.29692138 -27.234375 44.4453125 C-27.92249268 45.00549072 -28.61061035 45.56566895 -29.31958008 46.14282227 C-30.67934705 47.24740075 -32.04113633 48.34949481 -33.4050293 49.44897461 C-36.28709503 51.77416783 -39.12830631 54.11280622 -41.91015625 56.55859375 C-46.45476608 60.49912871 -49.81234687 62.86478596 -55.89453125 63.35546875 C-60.89824947 62.51068515 -64.02655552 59.17711445 -67.25 55.5 C-68.02472656 54.61699219 -68.79945313 53.73398437 -69.59765625 52.82421875 C-72.76073149 49.10567664 -75.86114492 45.34146403 -78.91796875 41.53515625 C-80.70887752 39.35448121 -82.57173667 37.30712102 -84.5 35.25 C-87.29204245 32.00812849 -88 29.34025905 -88 25 C-87.22999858 21.68899388 -86.17787165 20.19356621 -83.875 17.6875 C-80.86277851 15.91945695 -78.60914472 15.22232104 -75.09375 15.4453125 C-66.34865631 17.76210971 -59.50258162 29.27349857 -54 36 C-49.06538026 32.85629366 -44.61140514 29.31187506 -40.125 25.5625 C-38.62012419 24.31470302 -37.11490724 23.06731738 -35.609375 21.8203125 C-34.84689453 21.18770508 -34.08441406 20.55509766 -33.29882812 19.90332031 C-29.67027926 16.89905449 -26.02591991 13.91451698 -22.375 10.9375 C-21.41811279 10.15258179 -21.41811279 10.15258179 -20.44189453 9.35180664 C-7.73696229 -0.99831772 -7.73696229 -0.99831772 0 0 Z " fill="#000000" transform="translate(419,369)"/>
<path d="M0 0 C3.33937576 1.84731425 4.62598934 3.11633397 6.109375 6.62109375 C7.17260734 10.65484803 7.33084651 14.28751999 7.3125 18.4375 C7.32861328 19.16259766 7.34472656 19.88769531 7.36132812 20.63476562 C7.36598081 25.81320633 6.40213233 29.39930588 4 34 C1.62173894 36.23836335 0.07882906 36.95561168 -3.18359375 37.08984375 C-7.03228353 36.84337593 -9.37415901 36.46938074 -12.5 34.125 C-15.93272368 29.26197479 -15.22060501 23.83497611 -15.25 18.125 C-15.270625 17.13113281 -15.29125 16.13726562 -15.3125 15.11328125 C-15.36193995 5.88036995 -15.36193995 5.88036995 -12 2 C-7.96379315 -0.69080456 -4.73994236 -0.66642423 0 0 Z " fill="#000000" transform="translate(93,327)"/>
</svg>
