<?xml version="1.0" encoding="UTF-8"?>
<svg version="1.1" xmlns="http://www.w3.org/2000/svg" width="512" height="512">
<path d="M0 0 C0.83940329 -0.00981429 1.67880658 -0.01962858 2.54364634 -0.02974027 C3.91158909 -0.01533276 3.91158909 -0.01533276 5.30716705 -0.00063419 C6.77223702 -0.00893579 6.77223702 -0.00893579 8.26690435 -0.01740509 C11.54283106 -0.03102866 14.81799817 -0.01603267 18.09391022 -0.00113773 C20.44118829 -0.00492027 22.78846414 -0.01041977 25.13573456 -0.01751041 C31.51376459 -0.03149062 37.89152564 -0.02027702 44.26954079 -0.0037992 C50.26322974 0.00863268 56.25690024 0.00444194 62.25059599 0.00107109 C74.12728575 -0.00480715 86.00386949 0.00936259 97.88053131 0.03401852 C109.40433476 0.05793921 120.92799655 0.06502275 132.45182037 0.05452633 C145.00130527 0.04311617 157.55072465 0.04118826 170.10020876 0.05562443 C176.74299514 0.0631983 183.38573579 0.06705498 190.02852631 0.06112003 C196.27314861 0.05635358 202.51757443 0.06643844 208.76215935 0.08807468 C211.05633824 0.09364721 213.35053601 0.09410361 215.64471626 0.08912182 C218.77175833 0.08318222 221.89819699 0.09564918 225.02518463 0.1128912 C225.93714647 0.10688115 226.8491083 0.10087111 227.78870535 0.09467894 C235.46113279 0.17182283 239.02871667 2.61221537 244.43674469 8.02390194 C245.3677298 8.95069256 246.2987149 9.87748318 247.25791168 10.83235836 C248.27723483 11.85716416 249.29645756 12.88206985 250.3155899 13.90706539 C251.39801325 14.98841521 252.48086956 16.06933179 253.56412506 17.14984798 C256.49814724 20.0790314 259.42589534 23.01441254 262.35241413 25.9510901 C265.4156052 29.02307312 268.48407563 32.08977446 271.55185699 35.1571722 C276.69982544 40.30607648 281.84390957 45.45883556 286.98551178 50.61409664 C292.93470287 56.57903323 298.88912465 62.53870685 304.84655976 68.49540907 C310.57546907 74.22370873 316.3015191 79.95485713 322.02597046 85.68761158 C324.46376884 88.12894536 326.90241895 90.56942367 329.34172058 93.00925541 C332.21030509 95.87884215 335.07633368 98.75095758 337.94037628 101.62507725 C338.99370354 102.68133246 340.04788544 103.73673618 341.10296631 104.79123974 C342.53880533 106.22659023 343.97127159 107.66531231 345.40354156 109.10422421 C346.2073035 109.90966199 347.01106544 110.71509977 347.83918381 111.54494476 C350.93935135 114.86338822 350.79384762 117.00978443 350.80319023 121.46706867 C350.81080205 123.38695089 350.81080205 123.38695089 350.81856763 125.34561861 C350.81916936 126.77938004 350.81966842 128.21314153 350.82007599 129.64690304 C350.82408903 131.15958126 350.82852698 132.67225841 350.83335555 134.18493426 C350.84534428 138.35706992 350.85097479 142.52919401 350.8555367 146.70134354 C350.86148396 151.19495881 350.87309585 155.68856018 350.88382721 160.1821661 C350.90836923 171.04091262 350.92297991 181.89966374 350.93588728 192.75842947 C350.93959755 195.82346037 350.9435709 198.88849081 350.94763994 201.95352125 C350.97287203 220.97239609 350.99493288 239.99127161 351.00736809 259.01015949 C351.01029795 263.41711969 351.01325959 267.82407986 351.0162735 272.23104 C351.01701955 273.32641538 351.0177656 274.42179075 351.01853426 275.55035932 C351.03119684 293.30789372 351.06443118 311.06532818 351.10607533 328.82281582 C351.1484457 347.03869904 351.17205735 365.25453102 351.17728865 383.4704634 C351.18070807 393.70433642 351.19252576 403.93805322 351.22539139 414.17187786 C351.25332569 422.88460272 351.26442041 431.59713934 351.25319593 440.30990551 C351.24799246 444.75805068 351.25100481 449.20580125 351.27566147 453.65388966 C351.29802829 457.72270564 351.29751322 461.79084071 351.2784576 465.85966761 C351.27563981 467.33477945 351.28135409 468.80993623 351.29627053 470.28497534 C351.31525665 472.28402796 351.30065332 474.28331641 351.2842083 476.28239155 C351.28556483 477.39464741 351.28692136 478.50690327 351.28831899 479.65286386 C350.66617584 482.50057125 350.66617584 482.50057125 348.50675833 484.8577472 C345.2284801 486.75370845 343.36475496 487.00162558 339.59882355 487.00393581 C337.75973325 487.0195823 337.75973325 487.0195823 335.88348961 487.03554487 C334.52605582 487.02689697 333.16862441 487.01787036 331.81119537 487.00850582 C330.36675703 487.01311472 328.92232338 487.01946757 327.47789955 487.0274148 C323.50817105 487.04413301 319.53882655 487.03585062 315.56909657 487.02346992 C311.28817691 487.01443188 307.007324 487.02838295 302.72641754 487.03938961 C294.33992908 487.05719277 285.95358367 487.05332687 277.56708956 487.04173905 C270.75230769 487.03271206 263.93756597 487.03147754 257.12277985 487.03583431 C256.15352448 487.03644724 255.18426911 487.03706018 254.18564236 487.03769168 C252.21672868 487.03897056 250.247815 487.04026741 248.27890134 487.04158205 C229.80863091 487.05299311 211.33843984 487.03986589 192.86818242 487.01838058 C177.01369777 487.00050913 161.15933026 487.00361309 145.30484772 487.02205563 C126.90147917 487.04345305 108.4981802 487.05189442 90.09480095 487.03960657 C88.13305792 487.03833235 86.17131489 487.03707487 84.20957184 487.03583431 C82.7616817 487.03490866 82.7616817 487.03490866 81.28454125 487.03396431 C74.47653481 487.03050802 67.66857243 487.03634575 60.86057281 487.04575253 C52.56588887 487.05696136 44.27135637 487.053956 35.97668982 487.03262955 C31.74314378 487.02210406 27.50985042 487.01802269 23.27630615 487.03122616 C19.40251482 487.04312508 15.5292109 487.03662933 11.65546393 487.01531595 C10.25244306 487.0108392 8.84938121 487.01314022 7.44638658 487.0228191 C5.54212867 487.03495069 3.63775577 487.02013647 1.73352814 487.00393581 C0.1456162 487.0029617 0.1456162 487.0029617 -1.47437477 487.00196791 C-5.23512318 486.34253092 -6.81340224 485.37693286 -9.33382416 482.50057125 C-9.83534327 479.65416322 -10.00714842 477.40084941 -9.96302986 474.55445004 C-9.97029707 473.74399042 -9.97756427 472.93353081 -9.98505169 472.09851182 C-10.00339354 469.365123 -9.98590423 466.63312126 -9.96874237 463.89974117 C-9.97449994 461.92747782 -9.98243859 459.95521981 -9.99237859 457.9829731 C-10.01332517 452.54963569 -10.00290125 447.11673521 -9.9874475 441.68339586 C-9.97616982 435.82918021 -9.99357886 429.97504155 -10.00734711 424.12084103 C-10.0296224 412.647068 -10.0247592 401.17345818 -10.0102839 389.69967866 C-9.99900853 380.37771231 -9.99745338 371.05579187 -10.00290298 361.7338171 C-10.00328491 361.0719988 -10.00366684 360.41018049 -10.00406033 359.72830709 C-10.00561697 357.04191647 -10.00720897 354.35552588 -10.00885915 351.66913531 C-10.02416159 326.4576106 -10.0102751 301.24617504 -9.98337467 276.03466408 C-9.95964578 253.62514006 -9.96176889 231.21575809 -9.98567963 208.80623531 C-10.0124403 183.64146685 -10.02307644 158.47677718 -10.00761831 133.31199646 C-10.00601467 130.63043946 -10.00445047 127.94888244 -10.00290298 125.2673254 C-10.00213161 123.94782349 -10.00136023 122.62832158 -10.00056548 121.26883477 C-9.9962418 111.95415687 -10.00354938 102.6395497 -10.01530075 93.32488155 C-10.02929958 81.97897798 -10.02558093 70.63324743 -9.99889703 59.28736377 C-9.98572366 53.49448128 -9.98066642 47.70188766 -9.99714279 41.90900707 C-10.01198241 36.61161038 -10.00395333 31.31477179 -9.97725503 26.01742613 C-9.97164457 24.09555479 -9.97456745 22.17363682 -9.98663397 20.25179517 C-10.00172682 17.64941339 -9.98636389 15.04897101 -9.96302986 12.44669247 C-9.97473569 11.69146679 -9.98644152 10.93624111 -9.99850208 10.15812981 C-9.93136525 6.44055694 -9.61885469 4.81034031 -7.06536281 2.03522438 C-4.3731828 0.52268401 -3.0313817 0.00045103 0 0 Z M4.66617584 15.50057125 C4.66617584 165.98057125 4.66617584 316.46057125 4.66617584 471.50057125 C114.22617584 471.50057125 223.78617584 471.50057125 336.66617584 471.50057125 C336.66617584 357.65057125 336.66617584 243.80057125 336.66617584 126.50057125 C284.19617584 126.00557125 284.19617584 126.00557125 230.66617584 125.50057125 C229.34617584 124.51057125 228.02617584 123.52057125 226.66617584 122.50057125 C226.33617584 87.19057125 226.00617584 51.88057125 225.66617584 15.50057125 C152.73617584 15.50057125 79.80617584 15.50057125 4.66617584 15.50057125 Z M240.66617584 27.50057125 C240.66617584 55.22057125 240.66617584 82.94057125 240.66617584 111.50057125 C268.38617584 111.50057125 296.10617584 111.50057125 324.66617584 111.50057125 C319.96575279 105.97068323 319.96575279 105.97068323 315.0281601 100.73557186 C314.37346741 100.07805935 313.71877472 99.42054684 313.04424286 98.7431097 C312.34737869 98.04826977 311.65051453 97.35342983 310.93253326 96.63753414 C310.18223846 95.88548702 309.43194366 95.1334399 308.65891266 94.35860348 C306.19898532 91.89430411 303.73545353 89.43364558 301.27164459 86.9732275 C299.55611036 85.25701932 297.84072456 83.54066274 296.12548065 81.82416439 C292.5421172 78.23933064 288.95696085 74.65630229 285.37052155 71.07454586 C280.76225062 66.47199771 276.15851795 61.86494028 271.55609417 57.25654602 C268.02102926 53.71787948 264.48360086 50.18158339 260.94543648 46.64601612 C259.24574332 44.946992 257.54679806 43.24721935 255.84860039 41.54670048 C253.48575174 39.18132907 251.11975061 36.81915825 248.75284576 34.45784664 C248.04586044 33.74883709 247.33887512 33.03982754 246.610466 32.30933285 C245.96987244 31.6715591 245.32927887 31.03378536 244.66927338 30.37668514 C243.83060872 29.53858602 243.83060872 29.53858602 242.97500134 28.6835556 C241.83656743 27.38881425 241.83656743 27.38881425 240.66617584 27.50057125 Z " fill="#000000" transform="translate(85.33382415771484,12.499428749084473)"/>
<path d="M0 0 C1.71804336 1.59373224 3.4541221 3.06771426 5.29296875 4.515625 C9.79315637 8.4157876 15.11890839 13.19421331 17.10546875 18.953125 C17.08912424 24.8616642 14.13690886 27.76905753 10.23046875 31.765625 C9.34862915 32.68746582 9.34862915 32.68746582 8.44897461 33.62792969 C3.35041065 38.87311092 -2.03972461 43.56402235 -7.89453125 47.953125 C-8.41063965 48.34951172 -8.92674805 48.74589844 -9.45849609 49.15429688 C-42.29949092 74.29741743 -84.24812643 85.11009117 -125.1953125 79.703125 C-163.25114568 74.01671299 -196.32456344 55.29906412 -222.35546875 27.26953125 C-224.27544697 24.37981784 -224.7961136 22.42011023 -224.89453125 18.953125 C-220.21101758 8.63673678 -209.65274283 0.70046089 -200.89453125 -6.046875 C-199.99347656 -6.77519531 -199.09242188 -7.50351562 -198.1640625 -8.25390625 C-140.81315261 -53.42269183 -53.30119833 -49.73619159 0 0 Z M-139.0390625 -8.3828125 C-147.3269144 2.05115684 -150.07955106 13.90309439 -148.89453125 26.953125 C-147.19333685 35.39143585 -144.11540337 42.1545168 -138.89453125 48.953125 C-138.31703125 49.819375 -137.73953125 50.685625 -137.14453125 51.578125 C-128.34339656 60.86821162 -116.85394649 65.33523429 -104.26953125 66.203125 C-92.87252567 66.0073749 -80.94933435 61.48317338 -72.55078125 53.73828125 C-62.87110638 43.30523546 -58.46163072 31.60857176 -58.62109375 17.49609375 C-59.41996332 7.14502658 -63.33856434 -1.13208589 -69.89453125 -9.046875 C-70.3946875 -9.68238281 -70.89484375 -10.31789063 -71.41015625 -10.97265625 C-77.04858351 -17.39419841 -86.52021743 -22.29306584 -94.89453125 -24.046875 C-112.74583133 -25.12609136 -126.29217358 -21.66400216 -139.0390625 -8.3828125 Z M-200.89453125 13.953125 C-203.04789369 16.21651326 -204.97492245 18.48505654 -206.89453125 20.953125 C-192.58209693 36.03997962 -174.28573195 51.04003517 -153.89453125 56.953125 C-153.23453125 56.623125 -152.57453125 56.293125 -151.89453125 55.953125 C-152.28125 55.37046875 -152.66796875 54.7878125 -153.06640625 54.1875 C-162.01185267 40.10506454 -165.36725245 24.1882558 -161.71508789 7.76416016 C-159.96897188 0.68068521 -157.51056938 -5.70035909 -153.89453125 -12.046875 C-153.2205387 -13.37652017 -152.55153637 -14.70875449 -151.89453125 -16.046875 C-168.19015021 -16.046875 -189.52490929 3.41856002 -200.89453125 13.953125 Z M-55.89453125 -16.046875 C-55.435625 -15.221875 -54.97671875 -14.396875 -54.50390625 -13.546875 C-45.8183411 2.8024241 -42.08397708 19.24156443 -46.765625 37.62890625 C-48.83603739 43.72551851 -51.82212534 49.30462491 -54.89453125 54.953125 C-55.38953125 55.943125 -55.38953125 55.943125 -55.89453125 56.953125 C-34.43680713 50.66379207 -16.18072465 36.95030414 -0.89453125 20.953125 C-14.40259649 4.24578115 -35.04942867 -10.19561813 -55.89453125 -16.046875 Z " fill="#000000" transform="translate(359.89453125,353.046875)"/>
<path d="M0 0 C0.88966318 -0.00905664 1.77932635 -0.01811328 2.69594902 -0.02744436 C3.66918792 -0.02211644 4.64242682 -0.01678851 5.64515781 -0.01129913 C6.68226998 -0.01739024 7.71938215 -0.02348134 8.78792197 -0.02975702 C12.27410002 -0.04644809 15.75991527 -0.04160242 19.24612522 -0.03681183 C21.74103775 -0.04414857 24.23594688 -0.05273363 26.73085117 -0.06247711 C32.81072127 -0.08242857 38.89044793 -0.08807147 44.97033804 -0.08628923 C49.91157355 -0.08498211 54.8527793 -0.08878316 59.79400921 -0.09621429 C61.21678481 -0.09831346 62.63956042 -0.10041107 64.06233603 -0.10250711 C64.77046753 -0.10355064 65.47859904 -0.10459417 66.20818908 -0.10566932 C79.6033446 -0.12457517 92.99844536 -0.12352038 106.3936087 -0.11669999 C118.65059666 -0.11112364 130.90737567 -0.13195318 143.1643148 -0.16506046 C155.74717169 -0.19878454 168.32992843 -0.21396745 180.91283137 -0.20934343 C187.97823465 -0.20709751 195.04344476 -0.21235968 202.10880947 -0.23723602 C208.75152675 -0.26042498 215.3938811 -0.25768208 222.03663158 -0.2373085 C224.47756251 -0.23388639 226.9185224 -0.23903882 229.3594141 -0.25329208 C232.68605179 -0.27138035 236.01119363 -0.25881161 239.33778477 -0.23834991 C240.30879295 -0.25086776 241.27980113 -0.26338561 242.2802338 -0.27628279 C246.8500228 -0.21582143 248.92015648 -0.08457051 252.69353676 2.69538879 C254.55496311 5.38311005 254.55496311 5.38311005 254.55496311 9.00811005 C253.56959054 12.33374248 253.20238054 13.35002034 250.55496311 15.38311005 C248.5454908 15.76145887 248.5454908 15.76145887 246.198946 15.76622009 C244.85606257 15.77980505 244.85606257 15.77980505 243.48605019 15.79366446 C242.50143443 15.78833653 241.51681867 15.7830086 240.50236607 15.77751923 C238.93467044 15.78665588 238.93467044 15.78665588 237.3353042 15.79597712 C233.81604839 15.81269141 230.29715106 15.80781923 226.7778635 15.80303192 C224.2617718 15.81036733 221.74568347 15.818952 219.22959995 15.8286972 C213.09445487 15.84866064 206.95944279 15.85429077 200.8242696 15.85250932 C195.83866528 15.85120286 190.85309049 15.85499987 185.86749172 15.86243439 C184.43264197 15.86453353 182.99779221 15.86663113 181.56294245 15.86872721 C180.84882896 15.86977073 180.13471548 15.87081426 179.39896219 15.87188941 C165.88652586 15.89080091 152.37414378 15.88973878 138.86169969 15.88292009 C126.49404241 15.87734363 114.1265922 15.8981727 101.75898332 15.93128055 C89.06655187 15.96499483 76.37421969 15.98018875 63.68174261 15.97556353 C56.55319981 15.97331657 49.42484842 15.97859481 42.2963438 16.00345612 C35.59449993 16.02662995 28.89315863 16.02391425 22.19128323 16.00352859 C19.72735735 16.00010393 17.26340282 16.00526974 14.79951572 16.01951218 C11.44401377 16.03757467 8.08999904 16.02505114 4.7345438 16.00457001 C3.26096624 16.02334678 3.26096624 16.02334678 1.75761944 16.04250288 C-4.79143692 15.9563942 -4.79143692 15.9563942 -8.08126068 13.0708313 C-9.95489006 9.37829475 -9.60834669 7.30928061 -8.44503689 3.38311005 C-5.67432107 0.76406074 -3.77904008 0.00773772 0 0 Z " fill="#000000" transform="translate(133.44503688812256,192.61688995361328)"/>
<path d="M0 0 C1.04598484 -0.00623996 2.09196968 -0.01247993 3.16965103 -0.01890898 C6.68591894 -0.03490495 10.20149999 -0.02220843 13.71777344 -0.00964355 C16.23401292 -0.01506171 18.75024922 -0.02218264 21.26647949 -0.03088379 C27.39819447 -0.0472573 33.52965373 -0.04482286 39.66137218 -0.03323323 C44.64409684 -0.0242047 49.62676659 -0.02297237 54.60949707 -0.02732849 C55.3182927 -0.02794142 56.02708832 -0.02855436 56.7573626 -0.02918586 C58.19720556 -0.03046475 59.6370485 -0.0317616 61.07689142 -0.03307623 C74.58268229 -0.04448617 88.0883646 -0.03136186 101.59413767 -0.00987476 C113.18618521 0.00799663 124.77807254 0.00489264 136.37011719 -0.0135498 C149.82711806 -0.03494925 163.28402376 -0.0433875 176.74103928 -0.03110075 C178.1756261 -0.02982653 179.61021295 -0.02856905 181.0447998 -0.02732849 C181.75066923 -0.02671139 182.45653866 -0.02609429 183.18379807 -0.02545848 C188.16133293 -0.02200279 193.13880749 -0.02783863 198.11633301 -0.0372467 C204.81405055 -0.04962769 211.51141821 -0.04083041 218.2091217 -0.01766968 C220.67142736 -0.01236766 223.13375843 -0.01392169 225.59605408 -0.02272034 C228.94914976 -0.0336 232.30126425 -0.02000296 235.65429688 0 C236.63599979 -0.00892289 237.61770271 -0.01784577 238.62915421 -0.02703905 C245.17916707 0.04910848 245.17916707 0.04910848 248.43170166 2.35218048 C250.34967018 5.31515158 250.40423853 7.04539401 249.82714844 10.50793457 C248.43170166 12.66368866 248.43170166 12.66368866 245.82714844 14.50793457 C242.44156251 15.11452771 239.08586924 15.04705936 235.65429688 15.01586914 C234.60831203 15.0221091 233.56232719 15.02834907 232.48464584 15.03477812 C228.96837793 15.0507741 225.45279689 15.03807757 221.93652344 15.0255127 C219.42028396 15.03093085 216.90404765 15.03805178 214.38781738 15.04675293 C208.25610241 15.06312644 202.12464315 15.060692 195.99292469 15.04910237 C191.01020004 15.04007384 186.02753029 15.03884151 181.0447998 15.04319763 C180.33600418 15.04381056 179.62720855 15.0444235 178.89693427 15.045055 C177.45709132 15.04633389 176.01724838 15.04763074 174.57740545 15.04894537 C161.07161459 15.06035531 147.56593227 15.047231 134.06015921 15.0257439 C122.46811166 15.00787251 110.87622434 15.0109765 99.28417969 15.02941895 C85.82717881 15.05081839 72.37027311 15.05925664 58.9132576 15.04696989 C57.47867077 15.04569568 56.04408393 15.04443819 54.60949707 15.04319763 C53.90362764 15.04258053 53.19775821 15.04196343 52.4704988 15.04132763 C47.49296394 15.03787193 42.51548939 15.04370777 37.53796387 15.05311584 C30.84024633 15.06549683 24.14287867 15.05669955 17.44517517 15.03353882 C14.98286951 15.0282368 12.52053844 15.02979083 10.0582428 15.03858948 C6.70514712 15.04946914 3.35303263 15.03587211 0 15.01586914 C-1.47255438 15.02925347 -1.47255438 15.02925347 -2.97485733 15.04290819 C-9.5248702 14.96676067 -9.5248702 14.96676067 -12.77740479 12.66368866 C-14.6953733 9.70071756 -14.74994166 7.97047513 -14.17285156 4.50793457 C-10.69383796 -0.86661494 -5.77773554 -0.05251495 0 0 Z " fill="#000000" transform="translate(138.1728515625,248.4920654296875)"/>
<path d="M0 0 C1.27866943 -0.01265396 2.55733887 -0.02530792 3.87475586 -0.03834534 C5.28955482 -0.02702929 6.70434977 -0.01520181 8.11914062 -0.00291443 C9.61076712 -0.00805311 11.10238755 -0.015334 12.59399414 -0.02459717 C16.64371177 -0.04312641 20.69277182 -0.03016349 24.74246216 -0.01050687 C28.97935767 0.00586863 33.21621118 -0.00293172 37.453125 -0.00802612 C44.56846633 -0.01254833 51.68354489 0.00333048 58.79882812 0.03126526 C67.02643003 0.06331786 75.25355798 0.06330193 83.48119354 0.04605049 C91.39417975 0.03018958 99.30699211 0.03691611 107.2199707 0.0539875 C110.58834457 0.06086217 113.95657925 0.05982133 117.32495117 0.05244255 C121.29121604 0.04478426 125.2569412 0.05689027 129.22311401 0.08429146 C130.67917275 0.09118127 132.13528183 0.09126682 133.59133911 0.08407593 C135.57782511 0.07539554 137.56437464 0.09375801 139.55078125 0.11352539 C140.66279907 0.11633231 141.77481689 0.11913923 142.92053223 0.12203121 C146.45556019 0.74878112 147.63675753 1.78738459 149.77539062 4.62818909 C150.33789062 8.12818909 150.33789062 8.12818909 149.77539062 11.62818909 C147.18973724 14.26358063 145.5116195 15.50233452 141.84712982 16.12876034 C140.75945564 16.12896962 139.67178146 16.12917891 138.55114746 16.12939453 C137.29779099 16.13922867 136.04443451 16.14906281 134.75309753 16.15919495 C133.37185396 16.14982378 131.9906131 16.1400445 130.609375 16.12989807 C129.14878316 16.13368279 127.68819491 16.13918409 126.22761536 16.14627075 C122.26680535 16.16022299 118.30642984 16.14905748 114.345644 16.13255954 C110.19864696 16.11869989 106.05167492 16.12517016 101.90466309 16.12869263 C94.94076544 16.13139403 87.97704021 16.11792522 81.01318359 16.09474182 C72.96457276 16.06813246 64.9162502 16.06638521 56.86761045 16.07813019 C49.12177057 16.08891337 41.37603486 16.08271667 33.63020325 16.06857491 C30.33524612 16.06281978 27.04036534 16.06289405 23.7454071 16.0676403 C19.86457208 16.07241638 15.98405229 16.06228255 12.10327721 16.04068565 C10.67988333 16.03512616 9.2564591 16.03464482 7.83306313 16.03963852 C5.88857969 16.0456043 3.94406566 16.03123499 1.99963379 16.01586914 C0.91195961 16.01343925 -0.17571457 16.01100935 -1.29634857 16.00850582 C-4.66756693 15.57065863 -6.54529381 14.70371046 -9.22460938 12.62818909 C-10.28710938 9.25318909 -10.28710938 9.25318909 -10.22460938 5.62818909 C-7.3776407 0.89055104 -5.44973206 0.00287336 0 0 Z " fill="#000000" transform="translate(134.224609375,137.37181091308594)"/>
<path d="M0 0 C1.93279312 -0.01691895 1.93279312 -0.01691895 3.90463257 -0.03417969 C5.33046184 -0.02640269 6.7562889 -0.01821003 8.18211365 -0.00964355 C9.685213 -0.01506425 11.18830703 -0.02218662 12.69139099 -0.03088379 C16.77193635 -0.04912503 20.85207736 -0.04204691 24.93262982 -0.02936745 C29.20069299 -0.01924572 33.46872137 -0.02863065 37.73678589 -0.03491211 C44.90335818 -0.04219015 52.0697656 -0.03259593 59.23631287 -0.0135498 C67.52640628 0.00822761 75.81610635 0.00116203 84.10619026 -0.02085543 C91.22051826 -0.03899512 98.33472771 -0.04157504 105.44907135 -0.03110075 C109.69971062 -0.02485897 113.95016486 -0.02404902 118.20079231 -0.0372467 C122.19575842 -0.04878419 126.19021619 -0.04081859 130.18512726 -0.01766968 C131.65290164 -0.0123716 133.12071865 -0.01391515 134.58847618 -0.02272034 C136.58842843 -0.03361395 138.58847395 -0.01754481 140.58837891 0 C142.26884984 0.00226215 142.26884984 0.00226215 143.98326969 0.00457001 C146.73069763 0.50793457 146.73069763 0.50793457 148.5872488 2.35218048 C150.15722229 5.31206524 150.21252045 7.20400667 149.73069763 10.50793457 C147.58743698 13.32813048 146.40090264 14.38976498 142.87583923 15.01129913 C141.76382141 15.01280724 140.65180359 15.01431534 139.50608826 15.01586914 C138.22741882 15.02714844 136.94874939 15.03842773 135.6313324 15.05004883 C134.21653521 15.0422718 132.80174026 15.03407914 131.38694763 15.0255127 C129.89532284 15.03093349 128.4037034 15.03805591 126.91209412 15.04675293 C122.86247135 15.06499461 118.81325602 15.05791547 114.7636261 15.04523659 C110.52672727 15.03511321 106.28986345 15.04450042 102.05296326 15.05078125 C94.93766513 15.0580596 87.82253305 15.04846509 80.70726013 15.02941895 C72.47966963 15.00764976 64.25247561 15.014701 56.02489471 15.03672457 C48.96235509 15.05487327 41.89993486 15.05743951 34.83737946 15.04696989 C30.61856588 15.04073201 26.3999387 15.03990731 22.18113708 15.05311584 C18.2148939 15.06466613 14.24916214 15.05666419 10.28297424 15.03353882 C8.82690785 15.02824725 7.37079846 15.02977323 5.91474915 15.03858948 C3.92828401 15.04950891 1.94172487 15.03339157 -0.04469299 15.01586914 C-1.71271973 15.01360699 -1.71271973 15.01360699 -3.41444397 15.01129913 C-6.93995822 14.38968549 -8.12280505 13.32567102 -10.26930237 10.50793457 C-10.76930237 7.50793457 -10.76930237 7.50793457 -10.26930237 4.50793457 C-7.19067296 0.45968971 -4.98181706 0.00670398 0 0 Z " fill="#000000" transform="translate(134.26930236816406,82.4920654296875)"/>
<path d="M0 0 C6.29782174 5.00051763 10.35771179 11.63029286 11.7734375 19.59375 C12.32102544 27.8241626 10.02115383 35.21511086 4.8359375 41.59375 C-1.14236685 48.02407248 -7.30336361 50.68450651 -16.0390625 51.03125 C-23.83701643 50.79524635 -30.22786399 48.71159047 -36.0390625 43.40625 C-42.57820874 36.06323708 -43.90829068 29.01258705 -43.60546875 19.25390625 C-42.61093263 11.00717752 -38.78424684 5.1262091 -32.328125 0 C-22.52823809 -6.36815756 -9.79988691 -6.36815756 0 0 Z M-26.1640625 14.59375 C-28.46708318 18.40812801 -29.1783252 20.76651335 -29.1015625 25.21875 C-27.87941092 29.6184957 -26.05690547 32.17411777 -22.4140625 34.90625 C-17.35697542 36.45147105 -13.53653195 36.24114125 -8.8515625 34.03125 C-5.58956871 31.07269749 -4.39990644 28.81015873 -3.1640625 24.59375 C-3.33989751 20.19787474 -4.44827206 17.05872401 -7.1640625 13.59375 C-13.89237053 9.25772927 -20.08641277 9.38870993 -26.1640625 14.59375 Z " fill="#000000" transform="translate(272.1640625,350.40625)"/>
</svg>
