<?xml version="1.0" encoding="UTF-8"?>
<svg version="1.1" xmlns="http://www.w3.org/2000/svg" width="512" height="512">
<path d="M0 0 C0.78923648 -0.10145032 1.57847296 -0.20290063 2.3916257 -0.3074252 C89.89508925 -11.36348567 196.46329781 -23.35396141 271.02321339 33.41809928 C278.26703622 39.11212778 285.08338737 45.24869895 291.78657532 51.5643158 C292.52795777 52.25820231 293.26934023 52.95208882 294.03318882 53.6670022 C347.77852616 104.40083567 355.76156299 166.26944424 357.93610918 236.38814122 C359.8034378 301.97293562 356.6795749 367.84081961 351.64403522 433.22902349 C351.48069466 435.36022694 351.32132043 437.49169927 351.1624527 439.62324023 C350.86834123 443.53413763 350.54508058 447.44229629 350.21640015 451.35044861 C350.13184619 452.46927229 350.04729224 453.58809596 349.96017605 454.74082339 C348.23884687 473.97988589 340.36897158 489.52909067 325.53657532 501.9393158 C313.75426796 510.66771512 301.54029355 513.49477419 287.21914673 513.45674133 C285.96374956 513.46127245 284.70835239 513.46580356 283.41491288 513.47047198 C279.9463742 513.4826581 276.4779323 513.48244672 273.00937712 513.48008323 C269.26211616 513.47967394 265.51488576 513.49072491 261.76763916 513.50019836 C254.43169488 513.51678566 247.09578274 513.5223069 239.75982127 513.52342312 C233.79377623 513.52437475 227.82774176 513.5284908 221.86170006 513.53482437 C204.93085475 513.55243124 188.00003476 513.56166421 171.06918023 513.56016342 C170.15712422 513.56008351 169.24506821 513.5600036 168.30537415 513.55992126 C167.39219884 513.5598395 166.47902354 513.55975774 165.53817626 513.5596735 C150.74554436 513.55886095 135.95301437 513.57799239 121.16041193 513.606198 C105.95577179 513.63495946 90.75118129 513.64873647 75.54651326 513.64701045 C67.01659444 513.64634763 58.48678244 513.65179217 49.9568882 513.67336655 C42.69310873 513.69162141 35.42948448 513.69589054 28.16569195 513.6823477 C24.46375505 513.67583942 20.76211556 513.67562257 17.06020737 513.6930542 C13.0362231 513.71180651 9.01292069 513.69917468 4.98892212 513.68379211 C3.83383394 513.69407924 2.67874576 513.70436637 1.48865491 513.71496522 C-14.46666488 513.58080386 -28.42489265 507.47200211 -39.93217468 496.52915955 C-50.52631773 485.66290666 -57.45331919 472.16083915 -57.47069359 456.77565479 C-57.47419966 456.07133209 -57.47770574 455.36700938 -57.48131806 454.64134356 C-57.49058381 452.29338791 -57.48572133 449.94568293 -57.48085022 447.59771729 C-57.48458892 445.89240845 -57.48919132 444.18710133 -57.49458086 442.48179692 C-57.50679919 437.80469842 -57.50655177 433.12767151 -57.50419211 428.45056069 C-57.50378365 423.40267788 -57.51482595 418.35481793 -57.52430725 413.3069458 C-57.54091204 403.42027521 -57.54641657 393.53362847 -57.54753201 383.6469451 C-57.54848277 375.60900922 -57.55259447 367.5710812 -57.55893326 359.53314781 C-57.57654458 336.73652587 -57.58577235 313.93992275 -57.58427231 291.14329395 C-57.5841924 289.91461642 -57.58411249 288.68593888 -57.58403015 287.42002869 C-57.58394839 286.18984822 -57.58386663 284.95966775 -57.58378239 283.69220909 C-57.58296962 263.75869996 -57.60210541 243.82526643 -57.63030688 223.89177916 C-57.65904555 203.41676305 -57.67284662 182.94178378 -57.67111933 162.46674699 C-57.67045575 150.97459769 -57.67593407 139.48252762 -57.69747543 127.9903965 C-57.71570017 118.20504068 -57.72002393 108.41980001 -57.70645659 98.63443456 C-57.6999334 93.64445624 -57.69978635 88.65469874 -57.71716309 83.66474152 C-57.73292751 79.0906169 -57.72999582 74.51688758 -57.71259482 69.94277241 C-57.70953233 68.29406797 -57.71312881 66.64533378 -57.72431497 64.99666444 C-57.838589 46.9493044 -53.19532747 31.76471107 -40.55326843 18.4705658 C-29.12038455 7.32398117 -15.67973232 1.96569866 0 0 Z M-8.96342468 45.3768158 C-9.49451843 45.74162048 -10.02561218 46.10642517 -10.57279968 46.48228455 C-15.18406083 51.28019198 -16.71306031 55.78055258 -16.72237587 62.33492851 C-16.72878883 63.02241202 -16.73520178 63.70989553 -16.74180907 64.41821188 C-16.75837346 66.71513096 -16.74657521 69.01100205 -16.7348175 71.30793762 C-16.7408606 72.97399109 -16.74863961 74.64003901 -16.75800264 76.30607712 C-16.77857978 80.87921777 -16.77419486 85.45204513 -16.76564145 90.02521157 C-16.76071005 94.95921991 -16.77873141 99.89315252 -16.79371643 104.82713318 C-16.81922326 114.49137235 -16.82279624 124.15550042 -16.8181159 133.81976758 C-16.8145507 141.6747045 -16.81804637 149.52960767 -16.82656479 157.38454056 C-16.82775517 158.50223956 -16.82894554 159.61993857 -16.83017199 160.77150724 C-16.83259548 163.04207293 -16.83502375 165.31263861 -16.83745675 167.58320428 C-16.85921277 188.87966182 -16.85488038 210.17605604 -16.84268706 231.47251715 C-16.83234821 250.95618262 -16.85485991 270.43964811 -16.89288349 289.92327403 C-16.93162514 309.92816757 -16.94815497 329.93296648 -16.94063699 349.9378978 C-16.93681059 361.16951523 -16.94181096 372.40096244 -16.97006607 383.63254929 C-16.99387645 393.19412042 -16.99672313 402.75541658 -16.97248574 412.31699143 C-16.96069587 417.19517573 -16.95854212 422.07285686 -16.98249054 426.95100784 C-17.00416771 431.41844309 -16.99805234 435.88495386 -16.96996717 440.35234548 C-16.96466184 441.96668629 -16.96944266 443.58109907 -16.9854389 445.19536935 C-17.0600463 453.28734584 -16.98285799 459.90647796 -11.84140909 466.55202401 C-5.35983989 473.07064912 2.29115398 473.29970163 11.00927722 473.3277213 C12.64409303 473.32539839 12.64409303 473.32539839 14.31193542 473.32302856 C16.06300242 473.3264269 16.06300242 473.3264269 17.84944451 473.32989389 C21.08130431 473.33512297 24.31312905 473.33587982 27.54499173 473.33469951 C31.03382848 473.33449518 34.52265698 473.34001732 38.01148987 473.34475708 C44.84336768 473.35305692 51.67523685 473.35581161 58.50711928 473.35636946 C64.06087562 473.3568449 69.61462911 473.35890103 75.16838455 473.36207008 C90.91894492 473.37087452 106.66949849 473.37548974 122.42006133 473.37473961 C123.26884786 473.37469965 124.11763439 473.3746597 124.99214172 473.37461853 C126.26687822 473.37455721 126.26687822 473.37455721 127.56736697 473.37449465 C141.34176062 473.37408815 155.11612694 473.38365931 168.89051269 473.3977569 C183.03849847 473.41212247 197.18647093 473.41902699 211.33446419 473.41816312 C219.27568537 473.41783123 227.21687789 473.42057475 235.1580925 473.43134117 C241.91880898 473.4404485 248.67948381 473.44261948 255.44020377 473.43583175 C258.88826942 473.43256784 262.33625516 473.4325052 265.7843132 473.441185 C269.52536301 473.44888858 273.26620273 473.4442707 277.00724792 473.43655396 C278.09266369 473.44169752 279.17807945 473.44684108 280.2963866 473.45214051 C287.28369937 473.42027746 294.64716936 473.27309289 300.53657532 469.0018158 C301.06766907 468.63701111 301.59876282 468.27220642 302.14595032 467.89634705 C308.16872106 461.62979749 308.35632303 455.80907809 308.26759338 447.48986816 C308.27101108 446.31599122 308.27442878 445.14211427 308.27795005 443.93266529 C308.28338662 440.68739067 308.27093585 437.44275993 308.2508378 434.19756138 C308.23352605 430.69322152 308.23941213 427.1889104 308.2424469 423.68453979 C308.24454192 417.61734511 308.232017 411.5503228 308.20949554 405.48317146 C308.17695485 396.71117396 308.16656642 387.93925962 308.16154358 379.16720831 C308.15279417 364.93437725 308.12618821 350.70163802 308.08833313 336.46885681 C308.05160387 322.64496825 308.02329659 308.82110465 308.00630188 294.99717712 C308.00472554 293.71851462 308.00472554 293.71851462 308.00311735 292.41402055 C307.99789711 288.13747076 307.9928423 283.86092081 307.98786974 279.58437073 C307.94641872 244.11928697 307.87597994 208.65430986 307.78657532 173.1893158 C306.90089371 173.18122894 306.0152121 173.17314209 305.10269165 173.16481018 C296.70370478 173.08645546 288.30486937 172.99904607 279.90607929 172.90178871 C275.5895024 172.85211377 271.27294664 172.80578445 266.95625305 172.7674408 C262.78047213 172.73022005 258.60488155 172.68376749 254.42926598 172.63125229 C252.84633453 172.61290158 251.2633626 172.59772465 249.68036842 172.58597183 C230.0597979 172.43526163 213.31827831 170.11989623 197.78657532 157.1893158 C197.140755 156.65693298 196.49493469 156.12455017 195.82954407 155.57603455 C183.97912466 144.79563044 178.86356284 129.74637918 177.78657532 114.1893158 C177.59575311 108.54165113 177.53094982 102.89433375 177.47016907 97.2440033 C177.44955723 95.62161277 177.42855978 93.99922711 177.40719604 92.37684631 C177.35241154 88.1388191 177.30281283 83.900747 177.25434875 79.66264343 C177.20381197 75.32514017 177.14829512 70.98770084 177.09321594 66.6502533 C176.98616924 58.16332843 176.8846091 49.67634953 176.78657532 41.1893158 C154.23796848 41.14257478 131.68936965 41.10731663 109.14072418 41.08569145 C98.67077006 41.07538319 88.20084605 41.06133143 77.73091125 41.03843689 C68.60427979 41.01848928 59.47767014 41.00559609 50.35101748 41.00113881 C45.51948629 40.99853376 40.68801751 40.99242006 35.85650635 40.97785568 C31.30607703 40.96425014 26.75573566 40.96009917 22.20528793 40.96310043 C20.53803402 40.9625516 18.87077708 40.9585919 17.2035408 40.95090485 C14.92036192 40.94089696 12.63751144 40.943368 10.35432434 40.94880676 C9.07856285 40.94696318 7.80280136 40.94511959 6.48838043 40.94322014 C1.10290371 41.30124613 -4.4956618 42.13658182 -8.96342468 45.3768158 Z M217.78657532 70.1893158 C217.71200608 76.14835422 217.65777578 82.10711655 217.6217804 88.06651306 C217.60676287 90.09064978 217.58634271 92.11475435 217.56025696 94.13877869 C217.52356264 97.06065341 217.50677824 99.98209515 217.49360657 102.90415955 C217.47812271 103.79828049 217.46263885 104.69240143 217.44668579 105.61361694 C217.44477856 112.85399801 218.60253207 119.68956518 223.09907532 125.5643158 C228.04478716 130.39501108 233.38557956 132.32284814 240.1879425 132.30284119 C241.04853271 132.30276566 241.90912292 132.30269012 242.79579163 132.3026123 C243.71571899 132.29745102 244.63564636 132.29228973 245.58345032 132.28697205 C246.53222046 132.2855571 247.4809906 132.28414215 248.45851135 132.28268433 C251.48456494 132.27709321 254.51054415 132.26454232 257.53657532 132.2518158 C259.58995966 132.24679965 261.64334517 132.24223694 263.69673157 132.23814392 C268.72670808 132.22712669 273.75662909 132.20986813 278.78657532 132.1893158 C274.55782999 127.13505307 270.13484094 122.41495547 265.44673157 117.78697205 C264.76154953 117.10557663 264.07636749 116.42418121 263.37042236 115.72213745 C260.46973887 112.83763595 257.56310149 109.95916214 254.65693665 107.08018494 C252.52225534 104.96373033 250.39069203 102.84416954 248.25923157 100.72447205 C247.61422195 100.08776077 246.96921234 99.4510495 246.30465698 98.79504395 C242.47411073 94.9848807 238.85842488 91.04953674 235.32800293 86.96005249 C233.57236635 84.94324022 231.74566107 83.0192283 229.85688782 81.1268158 C229.20720032 80.47583923 228.55751282 79.82486267 227.88813782 79.15415955 C227.23587219 78.50576111 226.58360657 77.85736267 225.91157532 77.1893158 C225.23610657 76.50997986 224.56063782 75.83064392 223.86470032 75.13072205 C222.90177063 74.16972595 222.90177063 74.16972595 221.91938782 73.1893158 C221.05144592 72.3230658 221.05144592 72.3230658 220.16596985 71.4393158 C218.9733262 70.07739964 218.9733262 70.07739964 217.78657532 70.1893158 Z " fill="#000000" transform="translate(110.21342468261719,-1.1893157958984375)"/>
<path d="M0 0 C3.07678681 1.37207757 5.18280642 2.93492694 7.55609131 5.31558228 C8.24313644 5.99987808 8.93018158 6.68417389 9.63804626 7.38920593 C10.75258934 8.51453484 10.75258934 8.51453484 11.88964844 9.66259766 C12.68027176 10.45292892 13.47089508 11.24326019 14.28547668 12.05754089 C16.89821109 14.67166891 19.50378954 17.29281044 22.109375 19.9140625 C23.91926192 21.72767943 25.72959083 23.54085537 27.54034424 25.35360718 C31.81862071 29.63874034 36.09241301 33.92829651 40.36406636 38.22002828 C45.22831018 43.10663779 50.09824386 47.9875599 54.96866179 52.86801457 C64.98544799 62.90569789 74.99507421 72.95049593 85 83 C83.1068216 87.12390399 80.32174632 89.93280604 77.1171875 93.078125 C76.25578659 93.93528107 76.25578659 93.93528107 75.37698364 94.80975342 C73.5476419 96.62792945 71.71145807 98.43901492 69.875 100.25 C68.63105226 101.48391329 67.3875573 102.71828322 66.14453125 103.953125 C63.10157633 106.97406743 60.05246746 109.98867092 57 113 C43.07959132 106.03979566 34.00504935 92.00504935 23 81 C22.67 122.25 22.34 163.5 22 206 C8.47 206 -5.06 206 -19 206 C-19.33 164.42 -19.66 122.84 -20 80 C-30.89 90.89 -41.78 101.78 -53 113 C-57.1725131 110.91374345 -59.86737361 108.38841113 -63.078125 105.1171875 C-63.64956238 104.54292023 -64.22099976 103.96865295 -64.80975342 103.37698364 C-66.62792945 101.5476419 -68.43901492 99.71145807 -70.25 97.875 C-71.48391329 96.63105226 -72.71828322 95.3875573 -73.953125 94.14453125 C-76.97406743 91.10157633 -79.98867092 88.05246746 -83 85 C-81.62792243 81.92321319 -80.06507306 79.81719358 -77.68441772 77.44390869 C-77.00012192 76.75686356 -76.31582611 76.06981842 -75.61079407 75.36195374 C-74.48546516 74.24741066 -74.48546516 74.24741066 -73.33740234 73.11035156 C-72.54707108 72.31972824 -71.75673981 71.52910492 -70.94245911 70.71452332 C-68.32833109 68.10178891 -65.70718956 65.49621046 -63.0859375 62.890625 C-61.27232057 61.08073808 -59.45914463 59.27040917 -57.64639282 57.45965576 C-53.36125966 53.18137929 -49.07170349 48.90758699 -44.77997172 44.63593364 C-39.89336221 39.77168982 -35.0124401 34.90175614 -30.13198543 30.03133821 C-20.09430211 20.01455201 -10.04950407 10.00492579 0 0 Z " fill="#000000" transform="translate(254,209)"/>
</svg>
